<svg xmlns="http://www.w3.org/2000/svg" width="1200" height="630" viewBox="0 0 1200 630">
  <rect width="1200" height="630" fill="#0B0F14"/>
  <!-- grid -->
  <g stroke="#38E1D6" stroke-opacity="0.12" stroke-width="1">
    <line x1="0" y1="160" x2="1200" y2="160"/><line x1="0" y1="320" x2="1200" y2="320"/><line x1="0" y1="480" x2="1200" y2="480"/>
    <line x1="300" y1="0" x2="300" y2="630"/><line x1="600" y1="0" x2="600" y2="630"/><line x1="900" y1="0" x2="900" y2="630"/>
  </g>
  <!-- HUD rail -->
  <rect x="0" y="0" width="44" height="630" fill="#121821"/>
  <line x1="44" y1="0" x2="44" y2="630" stroke="#38E1D6" stroke-opacity="0.3"/>
  <circle cx="22" cy="315" r="5" fill="#38E1D6"/>
  <!-- motion arc -->
  <path d="M760 470 Q900 190 1080 300" fill="none" stroke="#FFB347" stroke-width="3" stroke-opacity="0.6"/>
  <circle cx="920" cy="286" r="8" fill="#38E1D6"/>
  <circle cx="920" cy="286" r="18" fill="#38E1D6" opacity="0.18"/>
  <circle cx="760" cy="470" r="5" fill="#FFB347"/>
  <circle cx="1080" cy="300" r="5" fill="#FFB347"/>
  <!-- text -->
  <text x="100" y="150" font-family="'JetBrains Mono', monospace" font-size="20" letter-spacing="6" fill="#38E1D6">SENIOR FRONTEND ENGINEER</text>
  <text x="96" y="300" font-family="'Space Grotesk', sans-serif" font-size="90" font-weight="700" fill="#E6ECF2">Rashid Reyaz Khan</text>
  <text x="100" y="372" font-family="'Inter', sans-serif" font-size="32" fill="#AAB6C4">Real-time UI · React / TypeScript · CSS &amp; SVG motion · web-perf</text>
  <text x="100" y="540" font-family="'JetBrains Mono', monospace" font-size="21" letter-spacing="3" fill="#6B7A8D">HYDERABAD, IN</text>
  <text x="100" y="575" font-family="'JetBrains Mono', monospace" font-size="21" letter-spacing="3" fill="#FFB347">→ RELOCATING TO TOKYO · JLPT N5→N3</text>
</svg>
